<?xml version="1.0" encoding="utf-8"?>
<!-- Generator: Adobe Illustrator 26.3.1, SVG Export Plug-In . SVG Version: 6.00 Build 0)  -->
<svg version="1.1" xmlns="http://www.w3.org/2000/svg" xmlns:xlink="http://www.w3.org/1999/xlink" x="0px" y="0px"
	 viewBox="0 0 1920 1080" style="enable-background:new 0 0 1920 1080;" xml:space="preserve">
<style type="text/css">
	.st0{fill:url(#SVGID_1_);}
	.st1{fill:#F3EFE6;}
	.st2{opacity:0.2;}
	.st3{fill:#5F0606;}
	.st4{fill:none;stroke:#333333;stroke-width:0.6;stroke-miterlimit:10;}
	.st5{fill:none;stroke:#000000;stroke-width:0.5;stroke-miterlimit:10;}
	.st6{opacity:0.8;fill:#AC6C6D;stroke:#333333;stroke-width:0.35;stroke-miterlimit:10;}
	.st7{fill:#E6E6E6;stroke:#333333;stroke-width:0.35;stroke-miterlimit:10;}
	.st8{fill:none;stroke:#333333;stroke-width:0.35;stroke-miterlimit:10;}
	.st9{fill:#AC6C6D;stroke:#333333;stroke-width:0.35;stroke-miterlimit:10;}
	
		.st10{clip-path:url(#SVGID_00000124874747785570984100000008048476774407286709_);fill:#333333;stroke:#333333;stroke-width:0.35;stroke-miterlimit:10;}
	.st11{opacity:0.2;clip-path:url(#SVGID_00000124874747785570984100000008048476774407286709_);}
	.st12{fill:#FFFFFF;stroke:#333333;stroke-width:0.35;stroke-miterlimit:10;}
	.st13{fill:#EFF3F4;stroke:#333333;stroke-width:0.35;stroke-miterlimit:10;}
	.st14{fill:#F2F2F2;stroke:#333333;stroke-width:0.35;stroke-miterlimit:10;}
	
		.st15{clip-path:url(#SVGID_00000135682670444893976650000014627063221418504603_);fill:#333333;stroke:#333333;stroke-width:0.35;stroke-miterlimit:10;}
	.st16{opacity:0.2;clip-path:url(#SVGID_00000135682670444893976650000014627063221418504603_);}
	.st17{fill:#FFFFFF;}
	
		.st18{clip-path:url(#SVGID_00000067221219989607876570000007836948406910647180_);fill:#333333;stroke:#333333;stroke-width:0.35;stroke-miterlimit:10;}
	.st19{opacity:0.2;clip-path:url(#SVGID_00000067221219989607876570000007836948406910647180_);}
	.st20{fill:none;stroke:#0D5A6D;stroke-width:1.5;stroke-miterlimit:10;}
	.st21{fill:none;stroke:#AC6C6D;stroke-width:1.5;stroke-miterlimit:10;}
	.st22{fill:#0D5A6D;}
	.st23{fill:#679E94;}
	.st24{fill:#333333;}
	.st25{fill:#270000;}
	.st26{fill:#AC6C6D;}
	.st27{fill:#A02F31;}
	.st28{fill:none;}
	.st29{font-family:'Brown-Regular';}
	.st30{font-size:24px;}
	.st31{font-family:'Brown-Light';}
	.st32{fill:none;stroke:#000000;stroke-linecap:round;stroke-linejoin:round;}
</style>
<g id="Background">
</g>
<g id="Layer_5">
</g>
<g id="Dehydrator">
</g>
<g id="Water_Filters">
</g>
<g id="labels">
	<line class="st20" x1="1046.6" y1="428.3" x2="836.5" y2="428.3"/>
	<line class="st20" x1="1046.6" y1="841.7" x2="794.7" y2="841.7"/>
	<rect x="1074.5" y="416.4" class="st28" width="490.8" height="156.7"/>
	<text transform="matrix(1 0 0 1 1074.5249 433.4432)"><tspan x="0" y="0" class="st22 st29 st30">3D printed insert using GrowLay filament</tspan><tspan x="466.5" y="0" class="st24 st29 st30"> </tspan><tspan x="473" y="0" class="st24 st31 st30">is </tspan><tspan x="0" y="28.8" class="st24 st31 st30">added as a decorative element on the side of </tspan><tspan x="0" y="57.6" class="st24 st31 st30">th sole. We hope to try to grow microgreens </tspan><tspan x="0" y="86.4" class="st24 st31 st30">from the side of the soles. </tspan></text>
	<rect x="1074.5" y="833.8" class="st28" width="496.7" height="132.5"/>
	<text transform="matrix(1 0 0 1 1074.5244 850.8404)"><tspan x="0" y="0" class="st22 st29 st30">Mycelium sole </tspan><tspan x="165.6" y="0" class="st24 st31 st30">is grown inside a mold for 1-2 </tspan><tspan x="0" y="28.8" class="st24 st31 st30">weeks. The mold has an indentation for the </tspan><tspan x="0" y="57.6" class="st24 st31 st30">3D printed GrowLay insert. After removing </tspan><tspan x="0" y="86.4" class="st24 st31 st30">from the mold the mycelium is dried.   </tspan></text>
	<line class="st20" x1="1046.6" y1="250.7" x2="712.5" y2="250.7"/>
	<rect x="1074.5" y="238.9" class="st28" width="530.1" height="109.3"/>
	<text transform="matrix(1 0 0 1 1074.5249 255.8924)"><tspan x="0" y="0" class="st22 st29 st30">Biotextile straps</tspan><tspan x="183.1" y="0" class="st24 st29 st30"> </tspan><tspan x="189.6" y="0" class="st24 st31 st30">are made from a bioplastic. </tspan><tspan x="0" y="28.8" class="st24 st31 st30">They can be cut by hand or with the laser cutter. </tspan><tspan x="0" y="57.6" class="st24 st31 st30">The straps slide through the sole to avoid the </tspan><tspan x="0" y="86.4" class="st24 st31 st30">need for glue and or nails.</tspan></text>
</g>
<g id="Material_Shelves">
	<path class="st4" d="M703.2,389.2c1.9-1.8,2.3-7.2,1.2-16.1"/>
	<path class="st4" d="M780.9,340.3c34.1,0,55-3.4,62.8-10.3"/>
	<path class="st4" d="M834.5,710.8c-2.7,3-6.1,5.2-10.2,6.6"/>
	<path class="st4" d="M342.2,775.3c0.6,2.8,4.3,5.2,10.9,7.2"/>
	<line class="st4" x1="424.1" y1="301.8" x2="445.3" y2="332"/>
	<path class="st4" d="M715.9,326.1c16.9-19.1,41.6-32,57.1-34.9"/>
	<path class="st4" d="M563.7,812.9c-16.1,4.8-32.4,8.3-48.9,11.4"/>
	<path class="st4" d="M380.7,750.8c-4.6-9.3-10.3-17.5-17.3-25.2c-3.5-3.8-7.2-7.3-10.9-10.8c-1.9-1.7-3.7-3.5-5.6-5.3
		c-1.8-1.8-3.6-3.6-5.5-5.4"/>
	<path class="st4" d="M342.6,705.4c-0.9,0.4-1.7,0.9-2.4,1.7c-0.3,0.4-0.5,0.8-0.7,1.2c-0.2,0.5-0.5,0.9-0.8,1.4
		c-1,1.7-1.9,3.4-2.7,5.3c-1.5,3.7-2.7,7.4-3.7,11.2"/>
	<path class="st4" d="M341.4,704.2c-0.3-0.2-0.6-0.5-0.9-0.8"/>
	<line class="st4" x1="342.7" y1="705.3" x2="342.7" y2="705.3"/>
	<path class="st4" d="M340.3,703.2c-0.1,0-0.1-0.1-0.2-0.1"/>
	<path class="st4" d="M703.2,389.2c-24.6-4.2-49.2-8.5-73.8-12.9c-24.6-4.4-49.1-8.7-73.6-13.8"/>
	<line class="st4" x1="839.1" y1="451.3" x2="839.1" y2="451.3"/>
	<path class="st4" d="M793.2,474.4c-0.6,0.3-1.2,0.6-1.8,0.9"/>
	<line class="st4" x1="458.9" y1="376.5" x2="458.9" y2="376.5"/>
	<path class="st4" d="M338.4,206.7C338.4,206.7,338.4,206.7,338.4,206.7"/>
	<path class="st4" d="M549.6,307.1c-10.9-2.6-21.8-4.8-32.9-6.5c-11-1.8-22.1-3.3-33.2-4.6c-11.1-1.4-22.2-2.4-33.3-3.5
		c-11.1-1.2-22.2-2.4-33.3-3.6"/>
	<path class="st4" d="M780.9,340.3c-8-0.1-16-0.4-24-0.8"/>
	<path class="st4" d="M625.1,430.2c-3.2-4.7-6.9-8.6-11.8-11.8c-4.5-2.9-10.3-5.1-15.8-4.5"/>
	<path class="st4" d="M479.1,396.4c-4.7-9.4-12.6-16.9-22.4-20.9c-9.9-4.1-20.5-4.6-30.1,1.3"/>
	<path class="st4" d="M319.4,367.5c-2.8-13-1-27.4,1.9-39.9"/>
	<path class="st4" d="M624.9,429.8c0.1,0.1,0.1,0.2,0.2,0.3"/>
	<path class="st4" d="M393.2,351.1c-12.4-1.2-26.7-3.7-38.9-6.4c-6.4-1.5-12.8-3-19-5.3c-3.1-1.1-6.1-2.4-8.9-4.1
		c-1.7-1-3.1-2.1-4.2-3.8c-0.8-1.2-1.2-2.5-0.9-3.9"/>
	<path class="st4" d="M591.8,168.1c1.8-2.6,4.2-5.5,6.9-7.2c3.2-2,6.3-2,9.4,0.1"/>
	<path class="st4" d="M577.6,198.4c2.9-8.5,7.6-20.9,12.8-28.4"/>
	<path class="st4" d="M578.9,194.8c-0.4,1.2-0.9,2.4-1.3,3.6"/>
	<path class="st4" d="M715.9,326.1c-2.5,3.3-4.7,6.7-6.5,10.5c-1.6,3.5-3.1,8-3.8,11.8c-0.5,3.1-1,9.2-1.1,12.3
		c-0.2,4.1-0.2,8.3-0.1,12.4"/>
	<path class="st4" d="M799.3,292.3c-7.8-1.9-18.4-1.9-26.3-1"/>
	<path class="st4" d="M800.4,287.5c-6.4-1.6-14.1-1.6-20.6-1.2c-7,0.5-13.6,1.5-20.3,3.8c-6.7,2.3-12.5,5.8-18.1,9.9
		c-5.6,4.1-10.8,8.6-15.7,13.5c-9.6,9.5-18.4,21-22.2,34.5c-1.9,6.8-2.2,13.5-2,20.5c0.2,6.9,0.9,13.8,1.6,20.7"/>
	<path class="st4" d="M817.5,302.9c-2.7-8.6-8.6-13.3-17.1-15.4"/>
	<path class="st4" d="M779.9,340.1c0.3,0.1,0.6,0.1,0.9,0.2"/>
	<path class="st4" d="M556.1,362.6c-7.1-4-10-10.4-10.9-18.1c-0.8-7.1,0.3-15,1.4-21.9c1.2-7.2,2.7-14.4,4.2-21.6
		c1.4-7.2,2.8-14.4,4.3-21.6c2.9-14.4,6.3-28.6,10.3-42.7c3.6-12.5,8.9-29.7,13.5-41.9"/>
	<path class="st4" d="M621.5,374.9c-21.8-4-43.6-8-65.4-12.3"/>
	<path class="st4" d="M840.1,316.5c6.6,2.5,14.7,5.9,20.5,10.2c3.1,2.3,5.7,5,7.8,8.3c2,3.4,3.3,6.9,4.1,10.7
		c3.2,14.5-0.4,31.8-4.5,45.2"/>
	<path class="st4" d="M564,444.7c-0.5,0.2-1,0.5-1.5,0.7"/>
	<path class="st4" d="M565.6,443.9c-4.2,2.4-8.2,3.7-13.1,3.8c-5,0.1-8.8-1.2-13.5-2.6c-4.4-1.2-8.9-2.3-13.4-3.3
		c-3.3-0.8-10.2-2.1-13.4-3.2c-9.1-3.1-15.6-10-20.6-17.6c-2.6-3.8-4.8-7.9-6.8-12c-1-2.1-2-4.2-2.9-6.3c-0.9-2.1-1.7-4.2-2.7-6.3"
		/>
	<path class="st4" d="M625.1,430.2c0.8,1.2,2.4,2,3.6,2.6c1.9,1,3.9,1.7,5.9,2.4c5,1.7,10,2.9,15.2,4c8.7,1.8,17.4,3.1,26.2,4.3
		c17.6,2.4,35.1,4.3,52.8,5.6c16.7,1.3,36.3,2.4,53.1,2.1c8.9-0.2,17.7-0.6,26.5-1.8c5-0.7,9.8-1.6,14.7-3c3.7-1.1,7.3-2.4,10.9-4"
		/>
	<line class="st4" x1="594.5" y1="432.7" x2="562.7" y2="445.3"/>
	<path class="st4" d="M443,331.7c1.6,0.2,3.2,0.4,4.8,0.6"/>
	<path class="st4" d="M447.8,332.3c0,1.9,0,3.8,0.1,5.8"/>
	<path class="st4" d="M412.9,391.9c-5.2,8.7-12.3,15.9-22.3,19.4"/>
	<path class="st4" d="M365.4,137.3c-0.6-0.3-0.9,0.3-1,0.8"/>
	<path class="st4" d="M366.3,138.1c-0.2-0.2-0.4-0.4-0.7-0.6c-0.1-0.1-0.2-0.2-0.4-0.3c0,0-0.1-0.1-0.1-0.1c0,0,0,0,0,0
		c0.1,0,0.1,0.1,0.2,0.1"/>
	<path class="st4" d="M364.4,138c-0.3,1-0.2,1.8-0.1,2.8c0.2,1.6,0.5,3.1,0.9,4.6c1.2,4.7,2.8,9.2,4.4,13.7c2.4,6.9,5,13.7,7.4,20.6
		c6.2,17.5,7.9,23.9,13.3,41.6c8.9,29.3,17.8,54,33.8,80.4"/>
	<path class="st4" d="M360,136.7c-0.3,1.1-0.1,2.6,0.1,3.6c0.4,2,1,3.8,1.6,5.7c1.9,5.7,4.2,11.2,6.5,16.8c3.5,8.5,7,17.1,10.2,25.7
		c3.2,8.6,6.1,17.4,8.9,26.2c2.8,8.8,5.5,17.6,8.5,26.3c6,17.5,12.9,34.4,21.7,50.8c8.8,16.4,18.9,31.6,30.5,46.1"/>
	<path class="st4" d="M327.8,284.3c2.4-12.4,3.9-24.9,5.3-37.5c1.3-11.6,2.7-26.1,5.1-37.5c2.6-12.4,6.7-24.3,10.7-36.3
		c3.9-12,7.7-24,11.1-36.2"/>
	<path class="st4" d="M329,315.1c-3.7-3.8-3.7-10.6-3.5-15.1c0.3-5.3,1.2-10.5,2.2-15.8"/>
	<path class="st4" d="M447.9,338c-35.6-3.7-84.7-10.5-118.9-22.9"/>
	<polyline class="st4" points="369.8,142.3 370.5,142 371.3,141.6 370.7,141.9 370.5,142 	"/>
	<polyline class="st4" points="371.3,141.6 371.9,141.3 372.2,141.3 	"/>
	<polygon class="st4" points="373.6,140.8 372.7,141 373.2,140.9 	"/>
	<polygon class="st4" points="366.7,145 366.2,145.7 365.7,146.4 366.3,145.7 	"/>
	<polyline class="st4" points="375.2,140.4 375.5,140.3 376,140.3 	"/>
	<polygon class="st4" points="374.9,140.5 374,140.6 374.4,140.5 	"/>
	<polygon class="st4" points="388.7,139.5 386.6,139.6 384.1,139.6 	"/>
	<polyline class="st4" points="444.2,142.1 448.1,142.8 449.6,143 	"/>
	<polygon class="st4" points="392.9,139.6 398.4,139.6 391.7,139.5 388.7,139.5 390.8,139.5 	"/>
	<line class="st4" x1="490.5" y1="146.1" x2="496.2" y2="146.3"/>
	<polyline class="st4" points="492.6,146.2 486.5,145.8 482.5,145.6 	"/>
	<polyline class="st4" points="446.7,142.6 455.3,143.7 455.3,143.7 	"/>
	<polyline class="st4" points="472.3,145.2 480.4,145.5 482.5,145.6 	"/>
	<line class="st4" x1="464.3" y1="144.6" x2="474.4" y2="145.3"/>
	<polyline class="st4" points="455.3,143.7 460.3,144.2 466.4,144.8 	"/>
	<polyline class="st4" points="525.7,144.5 521.3,145 517.6,145.4 513.8,145.6 515.5,145.6 519.1,145.2 526.4,144.4 526.7,144.4 	
		"/>
	<polyline class="st4" points="495.7,146.3 499.5,146.2 501.3,146.1 505.1,146 503.3,146.1 	"/>
	<line class="st4" x1="493.9" y1="146.3" x2="497.7" y2="146.2"/>
	<polyline class="st4" points="503.3,146.1 501.5,146.1 501.5,146.1 	"/>
	<polyline class="st4" points="547.8,140.2 546.3,140.6 543.1,141.4 536.7,142.8 535.7,143.1 	"/>
	<polyline class="st4" points="537.1,142.8 537.6,142.7 544.4,141.1 547.8,140.3 549.5,139.8 551.2,139.4 553,138.9 554.8,138.5 
		552.8,139 551.2,139.4 549.8,139.7 	"/>
	<line class="st4" x1="534.4" y1="143.3" x2="536" y2="143"/>
	<polyline class="st4" points="525.7,144.5 527.1,144.3 529.9,143.9 532.8,143.6 	"/>
	<line class="st4" x1="535.4" y1="143.2" x2="532.9" y2="143.7"/>
	<line class="st4" x1="536" y1="143" x2="537.1" y2="142.8"/>
	<polyline class="st4" points="534.4,143.4 536.7,142.8 542.2,141.6 	"/>
	<polyline class="st4" points="589.7,145.6 590.3,146.2 592.7,148.7 595.1,151.2 596.9,153 	"/>
	<line class="st4" x1="775.1" y1="291.3" x2="782.3" y2="293.3"/>
	<polyline class="st4" points="774.5,291.1 775.1,291.3 778.1,292.1 	"/>
	<line class="st4" x1="805.8" y1="299.4" x2="806.7" y2="299.6"/>
	<line class="st4" x1="809.3" y1="300.2" x2="810.3" y2="300.5"/>
	<line class="st4" x1="812.5" y1="301.2" x2="813.5" y2="301.5"/>
	<line class="st4" x1="811.6" y1="300.9" x2="810.3" y2="300.5"/>
	<line class="st4" x1="813.5" y1="301.5" x2="814.8" y2="301.9"/>
	<line class="st4" x1="813.9" y1="301.6" x2="812.5" y2="301.2"/>
	<line class="st4" x1="808.3" y1="300" x2="807.4" y2="299.7"/>
	<polyline class="st4" points="784.5,293.9 794.8,296.5 790.3,295.4 	"/>
	<polyline class="st4" points="778.1,292.1 782.3,293.3 789.8,295.3 	"/>
	<polyline class="st4" points="785.1,294 778.9,292.3 774.4,291.1 	"/>
	<line class="st4" x1="832.7" y1="310" x2="833.8" y2="310.8"/>
	<line class="st4" x1="833.8" y1="310.8" x2="834.6" y2="311.4"/>
	<line class="st4" x1="832.4" y1="309.8" x2="831.8" y2="309.4"/>
	<line class="st4" x1="832.6" y1="310" x2="834.7" y2="311.3"/>
	<line class="st4" x1="826.1" y1="306.4" x2="827.1" y2="306.9"/>
	<line class="st4" x1="826.9" y1="306.8" x2="828.1" y2="307.5"/>
	<line class="st4" x1="829.5" y1="308.2" x2="831.8" y2="309.4"/>
	<line class="st4" x1="827.8" y1="307.2" x2="828.8" y2="307.8"/>
	<line class="st4" x1="822" y1="304.5" x2="822.3" y2="304.7"/>
	<line class="st4" x1="818" y1="303" x2="820.3" y2="303.9"/>
	<line class="st4" x1="819.7" y1="303.6" x2="816.9" y2="302.7"/>
	<line class="st4" x1="817.9" y1="303" x2="819.7" y2="303.6"/>
	<line class="st4" x1="822.8" y1="304.9" x2="826.9" y2="306.8"/>
	<line class="st4" x1="820.6" y1="304" x2="817.9" y2="303"/>
	<polyline class="st4" points="813.9,301.6 814.8,301.9 814.8,301.9 	"/>
	<polyline class="st4" points="819.7,303.6 820.6,304 821.5,304.3 	"/>
	<line class="st4" x1="822" y1="304.6" x2="822.3" y2="304.7"/>
	<line class="st4" x1="823.2" y1="305.1" x2="824.5" y2="305.7"/>
	<line class="st4" x1="821.5" y1="304.3" x2="822" y2="304.6"/>
	<polyline class="st4" points="824.5,305.7 825.3,306.1 828.6,307.7 	"/>
	<polyline class="st4" points="822.3,304.7 823.2,305.1 825.3,306.1 	"/>
	<line class="st4" x1="828.1" y1="307.5" x2="829.3" y2="308"/>
	<polyline class="st4" points="825.3,306.1 826.1,306.4 827.1,306.9 	"/>
	<line class="st4" x1="816.7" y1="302.6" x2="817.2" y2="302.8"/>
	<polyline class="st4" points="834.7,311.3 835.4,311.9 836.6,312.9 	"/>
	<line class="st4" x1="832.3" y1="309.8" x2="832.6" y2="310"/>
	<polyline class="st4" points="829.3,308 829.5,308.2 831.7,309.5 	"/>
	<line class="st4" x1="834.9" y1="311.6" x2="835.4" y2="311.9"/>
	<line class="st4" x1="835.8" y1="312.3" x2="837.9" y2="314.1"/>
	<line class="st4" x1="837.9" y1="314.1" x2="840.3" y2="316.8"/>
	<line class="st4" x1="836.6" y1="312.9" x2="838.3" y2="314.5"/>
	<polyline class="st4" points="838.3,314.5 838.4,314.6 840.1,316.6 840.4,317 841.8,319 	"/>
	<line class="st4" x1="844" y1="324.9" x2="844.1" y2="325.2"/>
	<line class="st4" x1="842.9" y1="321" x2="842.1" y2="319.6"/>
	<line class="st4" x1="842.1" y1="319.7" x2="842.9" y2="321"/>
	<line class="st4" x1="843.9" y1="324.2" x2="844" y2="324.6"/>
	<line class="st4" x1="843" y1="321.2" x2="843.7" y2="323.5"/>
	<polyline class="st4" points="843.7,323.5 843.5,322.6 842.9,321 	"/>
	<polyline class="st4" points="844.1,325.2 844.1,325.2 844.2,325.6 	"/>
	<line class="st4" x1="843.9" y1="324" x2="844" y2="324.9"/>
	<line class="st4" x1="844" y1="324.6" x2="844.1" y2="325.2"/>
	<line class="st4" x1="843.8" y1="329.5" x2="844.1" y2="328.3"/>
	<line class="st4" x1="844.3" y1="326.6" x2="844.1" y2="325.2"/>
	<polyline class="st4" points="844.2,326.1 844.2,326.2 844.3,326.6 	"/>
	<line class="st4" x1="844.3" y1="327.3" x2="844.2" y2="326"/>
	<line class="st4" x1="843.8" y1="329.5" x2="844" y2="328.6"/>
	<polyline class="st4" points="844.1,328.1 843.9,329.3 843.6,330 	"/>
	<path class="st4" d="M813.5,301.5c-3.2-5.2-8.6-7.8-14.2-9.2"/>
	<path class="st4" d="M445.3,332c0.8,1,1.6,2,2.5,3"/>
	<line class="st4" x1="534.4" y1="143.3" x2="532.8" y2="143.6"/>
	<line class="st4" x1="789.8" y1="295.3" x2="787.7" y2="294.8"/>
	<line class="st4" x1="787.7" y1="294.8" x2="785.8" y2="294.3"/>
	<line class="st4" x1="816.9" y1="302.7" x2="816.7" y2="302.6"/>
	<line class="st4" x1="817.2" y1="302.8" x2="817.2" y2="302.8"/>
	<polyline class="st4" points="814.8,301.9 815.7,302.2 815.7,302.2 	"/>
	<path class="st4" d="M392,330.5c-10.7-1.8-21.4-3.8-32-6.1c-7.2-1.5-24.4-5.2-31.1-9.3"/>
	<path class="st4" d="M597.5,413.8c-4.2,0.4-7.9,2.1-10.9,5.1"/>
	<path class="st4" d="M319.4,367.5c0.3,1.6,1.4,2.9,2.5,4c1.7,1.6,3.6,2.7,5.6,3.8c3.4,1.8,7,3,10.7,4.2c7.4,2.3,14.8,3.8,22.4,5.1
		c7.6,1.3,15.2,2.2,22.8,2.8c6.9,0.5,16.1,0.9,23,0.4"/>
	<path class="st4" d="M406.5,387.7c2.6-0.2,7.8-0.7,10.3-1.9"/>
	<path class="st4" d="M480,397.5c1.3,0.9,3.5,1.5,5,1.9c2.2,0.6,4.4,1.1,6.7,1.5c4,0.8,7.9,1.6,11.9,2.3c8,1.5,15.9,3.1,23.8,5.1
		c7.9,2,15.6,4.4,23.4,6.7c7.2,2.1,16.2,4.5,23.8,4.8"/>
	<path class="st4" d="M321.3,327.6c1.4-5.9,3.1-11.8,5-17.5"/>
	<path class="st4" d="M852.3,402.3c-7.9,3-16,4.7-24.3,5.9c-11,1.6-22,2.3-33.1,2.5c-19.5,0.4-38.8-0.5-58.2-1.9
		c-19.4-1.4-38.6-3.4-57.9-6c-19.2-2.6-38.4-5.6-57.3-9.9c-6.4-1.5-22.7-5.2-29.1-6.7c-9.2-2.1-18.4-4.3-27.5-6.8
		c-9-2.5-17.8-5.4-26.8-7.9c-10.1-2.9-19.1-5-29.5-6.9c-13.4-2.4-44.1-6.8-57.6-8.5c-9.5-1.2-19-2.1-28.5-2.9
		c-9.8-0.7-19.7-1.2-29.5-2.2"/>
	<path class="st4" d="M549.7,306.7C549.7,306.7,549.7,306.7,549.7,306.7"/>
	<path class="st4" d="M569.6,365.3c0.1,0,0.3,0,0.4,0"/>
	<line class="st4" x1="470" y1="384.1" x2="428.2" y2="398.4"/>
	<line class="st4" x1="619" y1="422.9" x2="594.5" y2="432.7"/>
	<path class="st4" d="M753.5,339.4c-0.5,0-1,0-1.5,0"/>
	<path class="st4" d="M761.2,339.7c-0.3,0-0.7,0-1-0.1"/>
	<path class="st4" d="M759.7,339.6c-0.3,0-0.6,0-0.9-0.1"/>
	<path class="st4" d="M408.4,333c-5-0.7-9.9-1.4-14.9-2.2"/>
	<path class="st4" d="M851.3,431c-1.5,2.9-5.4,5.3-8,6.7c-3.1,1.7-6.3,3.2-9.5,4.7"/>
	<path class="st4" d="M867.9,391c-4.1,13.5-10,27.5-16.6,40"/>
	<path class="st4" d="M426.6,376.8c-3.9,2.4-7.1,5.3-9.9,9"/>
	<path class="st4" d="M479.1,396.4c0.1,0.2,0.3,0.4,0.4,0.6"/>
	<path class="st4" d="M852.3,402.3c4.4-1.6,13.9-5.7,15.6-11.4"/>
	<path class="st4" d="M576.5,419.9c3,0,7.1-0.2,10.1-1"/>
	<path class="st4" d="M624.7,428.3c-0.2,0.6,0,1,0.2,1.5"/>
	<path class="st4" d="M406.3,387.7c0.1,0,0.1,0,0.2,0"/>
	<path class="st4" d="M479.5,397c0.2,0.2,0.3,0.3,0.5,0.5"/>
	<path class="st4" d="M574.4,419.9c0.7,0,1.4,0,2.1,0"/>
	<path class="st4" d="M578.9,194.8c3.1-8.3,7.7-19.3,12.9-26.7"/>
	<path class="st4" d="M590.5,170c0.4-0.6,0.9-1.3,1.3-1.9"/>
	<path class="st4" d="M608.2,161c16.1,10.6,32,21.5,47.6,32.8c15.6,11.4,30.8,23.2,46,35c15.2,11.8,30.5,23.6,46.6,34.2
		c16.2,10.6,32.9,19.8,52.1,24.5"/>
	<path class="st4" d="M555.9,362.5C555.9,362.5,555.9,362.5,555.9,362.5"/>
	<path class="st4" d="M643,457.1c-3-4.5-6-9-8.9-13.5c-3-4.5-5.9-9-8.9-13.5"/>
	<path class="st4" d="M383.2,413c-6.8,0.9-14.5,0.2-21.1-1.6c-7.3-2-12.9-5.1-18.8-9.7c-5.2-4.1-11.3-9.4-15.3-14.8
		c-4.4-5.9-7.1-12.1-8.7-19.3"/>
	<path class="st4" d="M390.5,411.3c-2.4,0.8-4.8,1.4-7.3,1.7"/>
	<line class="st4" x1="836.2" y1="453.6" x2="809.2" y2="466.7"/>
	<path class="st4" d="M416.8,385.7c-1.5,1.9-2.8,4-3.9,6.2"/>
	<line class="st4" x1="562.5" y1="445.4" x2="562.5" y2="445.4"/>
	<path class="st4" d="M851.3,431c-3.7,7-7.7,13.8-12.3,20.4"/>
	<path class="st4" d="M791.4,475.3c-12.3,5.9-24.6,8.6-38.1,9.3c-11.9,0.6-27.7-0.1-39.5-1.1c-10.2-0.9-29.2-3.2-39.2-5.1
		c-6.3-1.2-13-2.9-18.5-6.6c-5.4-3.6-9.6-9.6-13.1-14.7"/>
	<line class="st4" x1="809.2" y1="466.7" x2="793.2" y2="474.4"/>
	<path class="st4" d="M433.7,373.5c-1.6,0.5-3.2,1.2-4.7,2"/>
	<line class="st4" x1="428.2" y1="398.4" x2="391" y2="411.1"/>
	<path class="st4" d="M836.2,453.6c1.2-0.6,2.1-1.2,2.9-2.3"/>
	<path class="st4" d="M586.6,418.9c-1.7,1.6-3,3.5-4.2,5.5"/>
	<path class="st4" d="M624.9,429.8C624.9,429.8,624.9,429.8,624.9,429.8"/>
	<path class="st4" d="M762.3,339.7c-0.2,0-0.4,0-0.5,0"/>
	<path class="st4" d="M761.8,339.7c-0.2,0-0.4,0-0.6,0"/>
	<path class="st4" d="M760.2,339.6c-0.2,0-0.3,0-0.5,0"/>
	<path class="st4" d="M758.8,339.5c-0.4,0-0.7,0-1.1,0"/>
	<path class="st4" d="M756.9,339.5c0,0-0.1,0-0.1,0"/>
	<path class="st4" d="M756.1,339.5c-0.5,0-1,0-1.6-0.1"/>
	<path class="st4" d="M756.8,339.5c-0.2,0-0.4,0-0.6,0"/>
	<path class="st4" d="M756.2,339.5C756.2,339.5,756.2,339.5,756.2,339.5"/>
	<path class="st4" d="M756.2,339.5C756.1,339.5,756.1,339.5,756.2,339.5"/>
	<path class="st4" d="M754.5,339.4c-0.3,0-0.7,0-1,0"/>
	<path class="st4" d="M753.5,339.4c-0.5,0-1,0-1.5-0.1"/>
	<path class="st4" d="M752,339.3c-1.7-0.1-3.4-0.2-5.2-0.2"/>
	<path class="st4" d="M746.9,339.1c-0.2,0-0.5,0-0.7,0"/>
	<path class="st4" d="M746.2,339c-1-0.1-2-0.1-3-0.2"/>
	<path class="st4" d="M743.1,338.9c-1.2-0.1-2.4-0.1-3.6-0.2"/>
	<path class="st4" d="M739.5,338.7c-0.4,0-0.8-0.1-1.2-0.1"/>
	<path class="st4" d="M738.3,338.6c-7.1-0.5-14.2-1-21.3-1.6"/>
	<path class="st4" d="M716.9,337c-1-0.1-2.1-0.2-3.1-0.3"/>
	<path class="st4" d="M713.8,336.8c-1.4-0.1-2.9-0.3-4.3-0.4"/>
	<path class="st4" d="M582.4,424.4c-4,7-9.4,15.2-16.8,19.5"/>
	<polyline class="st4" points="376.2,140.2 376.4,140.2 377.8,140 	"/>
	<line class="st4" x1="536.5" y1="143" x2="536.7" y2="142.9"/>
	<line class="st4" x1="537.1" y1="142.8" x2="536.7" y2="142.9"/>
	<line class="st4" x1="532.4" y1="143.8" x2="532.9" y2="143.7"/>
	<line class="st4" x1="575.4" y1="135.7" x2="577.3" y2="136.2"/>
	<line class="st4" x1="600.3" y1="156.3" x2="603.4" y2="159.4"/>
	<line class="st4" x1="802.5" y1="298.5" x2="803.3" y2="298.7"/>
	<line class="st4" x1="815.8" y1="302.3" x2="816.7" y2="302.6"/>
	<line class="st4" x1="811.3" y1="300.8" x2="812.5" y2="301.2"/>
	<line class="st4" x1="811.6" y1="300.9" x2="812.5" y2="301.2"/>
	<polyline class="st4" points="803.3,298.7 805.5,299.2 808.3,299.9 	"/>
	<polyline class="st4" points="791.6,295.8 791.6,295.8 802.5,298.5 802.5,298.5 	"/>
	<line class="st4" x1="787.2" y1="294.6" x2="789.8" y2="295.3"/>
	<line class="st4" x1="834.9" y1="311.6" x2="835.7" y2="312.2"/>
	<line class="st4" x1="828.6" y1="307.7" x2="829.3" y2="308"/>
	<line class="st4" x1="817.2" y1="302.8" x2="817.5" y2="302.9"/>
	<line class="st4" x1="815.7" y1="302.2" x2="816.7" y2="302.6"/>
	<line class="st4" x1="843.8" y1="323.9" x2="843.8" y2="324"/>
	<line class="st4" x1="843.9" y1="324.7" x2="844" y2="324.8"/>
	<line class="st4" x1="842.9" y1="321" x2="843" y2="321.2"/>
	<line class="st4" x1="843.7" y1="323.5" x2="842.9" y2="321"/>
	<line class="st4" x1="843.7" y1="323.5" x2="843.9" y2="324"/>
	<line class="st4" x1="844.2" y1="326" x2="844.2" y2="325.8"/>
	<line class="st4" x1="844" y1="324.8" x2="844.1" y2="325.6"/>
	<polyline class="st4" points="844.3,326.9 844.3,327.5 844.1,328.1 844.1,328.3 	"/>
	<path class="st4" d="M370.6,141.9c-1.5-1.3-2.9-2.5-4.3-3.8"/>
	<path class="st4" d="M372.7,141c-2-1.4-4.1-2.8-6.3-4c-1.1-0.6-2.2-1.2-3.4-1.5c-1.3-0.3-2.6-0.3-3,1.2"/>
	<line class="st4" x1="365.6" y1="146.7" x2="365.7" y2="146.4"/>
	<line class="st4" x1="790.3" y1="295.4" x2="789.8" y2="295.3"/>
	<line class="st4" x1="816.9" y1="302.7" x2="816.9" y2="302.7"/>
	<line class="st4" x1="534.3" y1="143.5" x2="535.4" y2="143.2"/>
	<line class="st4" x1="810.3" y1="300.5" x2="809.3" y2="300.2"/>
	<line class="st4" x1="806.7" y1="299.6" x2="806.7" y2="299.6"/>
	<path class="st4" d="M366.3,138.1c-0.3-0.3-0.6-0.6-0.9-0.8"/>
	<polyline class="st4" points="368.5,143.2 369.2,142.8 369.8,142.3 	"/>
	<line class="st4" x1="377.8" y1="140" x2="379.5" y2="139.9"/>
	<line class="st4" x1="424.1" y1="301.7" x2="424.1" y2="301.7"/>
	<polyline class="st4" points="526.1,145.1 528,144.8 529.4,144.5 532.4,143.8 	"/>
	<line class="st4" x1="814.5" y1="301.8" x2="815.7" y2="302.2"/>
	<line class="st4" x1="808.3" y1="299.9" x2="809.3" y2="300.2"/>
	<line class="st4" x1="831" y1="309" x2="831.7" y2="309.4"/>
	<line class="st4" x1="832.4" y1="309.8" x2="832.4" y2="309.8"/>
	<line class="st4" x1="820.3" y1="303.9" x2="821.5" y2="304.3"/>
	<line class="st4" x1="841.3" y1="318.3" x2="841.5" y2="318.6"/>
	<polyline class="st4" points="438.8,141.5 442.7,141.9 444.2,142.1 	"/>
	<polyline class="st4" points="414,140 418.2,140.3 425,140.7 	"/>
	<line class="st4" x1="494.1" y1="146.3" x2="495.9" y2="146.3"/>
	<line class="st4" x1="536.3" y1="143" x2="536.3" y2="143"/>
	<line class="st4" x1="535.6" y1="143.1" x2="535.4" y2="143.2"/>
	<line class="st4" x1="556.7" y1="138.1" x2="560.5" y2="137"/>
	<polyline class="st4" points="564.2,136.2 565.9,135.9 567.8,135.5 	"/>
	<polyline class="st4" points="581.9,138.9 582.6,139.4 584.6,140.9 	"/>
	<line class="st4" x1="787.7" y1="294.8" x2="787.7" y2="294.8"/>
	<line class="st4" x1="785.5" y1="294.2" x2="785.8" y2="294.3"/>
	<line class="st4" x1="831.7" y1="309.5" x2="832.1" y2="309.7"/>
	<polyline class="st4" points="833,310.3 833.9,310.9 834.6,311.4 	"/>
	<line class="st4" x1="828.3" y1="307.6" x2="828.6" y2="307.8"/>
	<line class="st4" x1="843.7" y1="323.5" x2="843.7" y2="323.6"/>
	<line class="st4" x1="372.7" y1="141" x2="371.9" y2="141.3"/>
	<line class="st4" x1="373.2" y1="140.9" x2="374" y2="140.6"/>
	<line class="st4" x1="376.2" y1="140.2" x2="375.5" y2="140.3"/>
	<polyline class="st4" points="368.5,143.2 367.9,143.7 367.3,144.4 366.7,145 	"/>
	<line class="st4" x1="375.2" y1="140.4" x2="374.4" y2="140.5"/>
	<polyline class="st4" points="380.9,139.8 383,139.7 384.1,139.6 	"/>
	<polyline class="st4" points="377.8,140 379,139.9 379.9,139.9 380.9,139.8 	"/>
	<line class="st4" x1="412" y1="139.9" x2="414" y2="140"/>
	<polyline class="st4" points="438.8,141.5 440.3,141.6 444.2,142.1 	"/>
	<line class="st4" x1="431.7" y1="141.1" x2="438.8" y2="141.5"/>
	<line class="st4" x1="425" y1="140.7" x2="431.7" y2="141.1"/>
	<polyline class="st4" points="391.7,139.5 396.7,139.5 400.1,139.6 407.1,139.8 412,139.9 	"/>
	<line class="st4" x1="492.6" y1="146.2" x2="490.5" y2="146.1"/>
	<polyline class="st4" points="505.1,146 507.8,145.9 513.8,145.6 	"/>
	<line class="st4" x1="554.8" y1="138.5" x2="558.3" y2="137.6"/>
	<polyline class="st4" points="564.2,136.2 562.4,136.6 560.5,137 	"/>
	<line class="st4" x1="569.8" y1="135.3" x2="567.8" y2="135.5"/>
	<polyline class="st4" points="569.8,135.3 570.6,135.3 572.6,135.2 	"/>
	<polyline class="st4" points="572.6,135.2 574.5,135.5 575.4,135.7 	"/>
	<polyline class="st4" points="584.6,140.9 585.3,141.5 587.2,143.2 	"/>
	<line class="st4" x1="589.7" y1="145.6" x2="587.2" y2="143.2"/>
	<line class="st4" x1="579.4" y1="137.2" x2="577.3" y2="136.2"/>
	<polyline class="st4" points="579.4,137.2 579.9,137.6 581.9,138.9 	"/>
	<polyline class="st4" points="595.1,151.2 597.6,153.6 600.1,156.1 600.3,156.3 	"/>
	<line class="st4" x1="812.9" y1="301.5" x2="812.4" y2="301.3"/>
	<line class="st4" x1="832.1" y1="309.7" x2="832.3" y2="309.8"/>
	<polyline class="st4" points="818.2,303.2 820.5,304.2 822.1,304.8 	"/>
	<line class="st4" x1="838.5" y1="315.1" x2="839.3" y2="315.9"/>
	<line class="st4" x1="839.3" y1="315.9" x2="839.8" y2="316.4"/>
	<line class="st4" x1="841.8" y1="319" x2="842.1" y2="319.6"/>
	<line class="st4" x1="844.3" y1="326.9" x2="844.3" y2="326.6"/>
	<line class="st4" x1="844.3" y1="327.3" x2="844.2" y2="327.6"/>
	<path class="st4" d="M311.6,838.9c-0.8,3.9,2.3,6.9,4.9,8.7c3,2.1,6.1,3.5,9.5,4.8"/>
	<path class="st4" d="M311.6,838.9c2.7-12.6,6.6-24.7,11.1-36.7c2.3-6,4.7-11.9,7.2-17.8c0.7-1.6,1.3-3.1,2-4.7c0.6-1.4,1.2-2.8,2-4
		c1.8-2.9,4.2-4.7,7-6.4"/>
	<path class="st4" d="M832.5,702.9c1.4,0.3,2.7,0.7,4,1.1"/>
	<path class="st4" d="M692.8,848.2c-0.8,1.1-3.6,5.5-4.4,6.6c-1.5,2.2-3,4.4-4.6,6.6c-3.2,4.3-6.5,8.4-10.3,12.3
		c-7.5,7.7-16.1,14-26.4,17.4c-5.6,1.9-9.8,2.4-15.6,3.3c-7.1,1.1-8.7,1.4-15.8,2.7c-2.6,0.5-5.2,1-7.8,1.5
		c-2.6,0.5-5.2,1.1-7.9,1.3c-5.5,0.5-10.5-0.5-15.4-3.2"/>
	<path class="st4" d="M857.3,768.5c-0.5,2.2-2.5,4-4.1,5.2c-2.7,2.1-5.7,3.5-8.8,5c-8,3.7-16.9,6.8-25.3,9.3
		c-13.7,4.1-28.7,7.5-42.7,10.1c-7.1,1.3-14.1,2.4-21.2,3.5c-7.4,1.1-14.8,2.2-22.2,3.3c-14.5,2.2-29,4.3-43.5,5.9
		c-14.5,1.6-29.1,3-43.7,4.8c-15.3,1.9-28.2,4.1-43.3,7.3c-7.2,1.6-14.4,3.2-21.6,4.9c-7.1,1.6-14.1,3.3-21.2,5.2
		c-7.3,1.9-14.5,4-21.6,6.6c-6.7,2.4-13.2,5.1-20,7.2"/>
	<path class="st4" d="M381.9,787.4c5.1,0.4,10.2,0.6,15.4,0.7"/>
	<path class="st4" d="M688.7,842.6c0.1,0.5-0.3,1.2-0.5,1.6"/>
	<path class="st4" d="M689.2,842.9c1.2,1.2,2.4,2.4,3.6,3.6"/>
	<path class="st4" d="M849.6,776.1c-2.8,10.6-6.3,21-10.4,31.2"/>
	<path class="st4" d="M710.6,828.2c-3.5,1-6.7,2.5-9.8,4.4"/>
	<path class="st4" d="M691.9,839.8c-1.3,1.4-2.6,2.8-3.7,4.4"/>
	<path class="st4" d="M688.2,844.2c-0.1,0.1-0.2,0.3-0.3,0.4"/>
	<path class="st4" d="M505.8,881.1c1.2,0.8,2.4,1.6,3.6,2.3"/>
	<path class="st4" d="M505.8,881.1c-0.2,0.4-0.3,0.7-0.5,1.1"/>
	<path class="st4" d="M505.3,882.1c-0.2,0.4-0.4,0.8-0.6,1.2"/>
	<path class="st4" d="M316.4,884.3c-2.7-11.8-1.8-24.9,0.2-36.6"/>
	<path class="st4" d="M726.1,834.3c-12.5-4-26,2.7-34.2,11.4"/>
	<line class="st4" x1="587.5" y1="898" x2="559.4" y2="887.4"/>
	<path class="st4" d="M550.5,855.7c-9.3-3.4-18.7-0.4-26.1,5c-7.4,5.4-13.3,13.2-17.6,21.2"/>
	<line class="st4" x1="717.6" y1="854.2" x2="691.5" y2="845.6"/>
	<path class="st4" d="M324.6,897.5c13.7,5.6,32,8.3,46.5,9.5c15.9,1.3,31.7,1.3,47.6,0.3c15.9-0.9,31.6-2.8,47.2-5.8
		c7.8-1.5,15.6-3.2,23.2-5.3c4.5-1.3,9-2.7,13.4-4.6c1.7-0.7,3.4-1.6,4.9-2.6c1-0.6,2.4-1.6,3-2.7"/>
	<path class="st4" d="M426.6,860.8c-21.9,1.6-46.7,1.6-68.5-1.6"/>
	<path class="st4" d="M518.1,846.5c-13.2,4-34,7.6-47.6,9.7c-16,2.4-32.1,4.3-48.3,5.2c-16.2,0.9-32.4,1-48.6-0.2
		c-14.6-1-33.7-3.5-47.6-8.8"/>
	<path class="st4" d="M513.2,847.9c-0.2,5.7-0.9,11.3-2.1,17c-1.1,5.2-3,11.4-5.3,16.2"/>
	<path class="st4" d="M504.8,883.1C504.8,883.1,504.8,883.1,504.8,883.1"/>
	<path class="st4" d="M383.6,787.5c0.2,0,0.3-0.1,0.5-0.1"/>
	<path class="st4" d="M680.5,797.3c0-1.9,0-3.9-0.1-5.8"/>
	<path class="st4" d="M790.6,696.4c11.7,7.5,25.1,18.2,31.6,31.4c3.7,7.5,4.5,13.7,3.8,21.9c-0.6,7-2.3,15.4-3.8,22.2"/>
	<path class="st4" d="M639.6,601.7c19.7,24.9,48,37.8,74.8,50.7c13.7,6.6,27.2,13.4,40.4,21.1c6.6,3.8,13.1,7.8,19.4,12
		c3.5,2.3,7.1,4.6,10.6,7c1.6,1.1,3.1,2.1,4.7,3.2c0.8,0.6,1.7,1.2,2.5,1.8c0.3,0.2,0.6,0.4,0.9,0.6c0.1,0,0.1,0.1,0.2,0.1
		c0,0,0.1,0,0.1,0"/>
	<path class="st4" d="M680.4,792c3.3-2.3,5.3-5.3,6.4-9.2c1.2-4.3,1.3-9,1-13.4c-0.6-8.1-2.5-16.6-4.3-24.4c-0.9-4-1.9-7.9-2.8-11.9
		c-1-4.1-1.9-8.2-2.9-12.3c-1.9-8.1-3.8-16.1-6-24.1c-4.3-16-9.4-31.7-15-47.3c-4.5-12.5-12.5-34-21.1-44.8"/>
	<path class="st4" d="M680.8,797.3c8.5-5,10.5-13.6,10.4-22.4c-0.1-8.3-1.9-17.6-3.6-25.7c-0.9-4.1-1.8-8.3-2.7-12.4
		c-0.9-4.3-1.9-8.7-2.8-13c-1.8-8.5-3.6-16.9-5.7-25.4c-4.2-16.8-9.3-33.4-15-49.7c-4.6-13.2-12.7-35.5-21.8-47"/>
	<path class="st4" d="M759.2,783.5c-26.1,4.7-52.3,9.2-78.4,13.7"/>
	<path class="st4" d="M822.9,718.1c-0.1,0-0.2,0.1-0.3,0.1"/>
	<polyline class="st4" points="346.3,709.5 345.5,712.4 344.9,715.4 	"/>
	<line class="st4" x1="346.3" y1="709.1" x2="345.8" y2="711.7"/>
	<line class="st4" x1="344.7" y1="716.1" x2="345.5" y2="713.1"/>
	<polyline class="st4" points="343.7,722.3 344.1,719.9 344.2,719.1 	"/>
	<polyline class="st4" points="372.2,629.9 371.8,630.1 371.2,630.4 	"/>
	<polygon class="st4" points="371.1,630.4 372,630.2 371.2,630.4 	"/>
	<polyline class="st4" points="369.7,631.2 370.3,630.8 371.1,630.4 	"/>
	<line class="st4" x1="370.3" y1="630.9" x2="369.8" y2="631.2"/>
	<line class="st4" x1="370.3" y1="630.9" x2="369.7" y2="631.2"/>
	<polyline class="st4" points="340.1,750.9 340,751.8 339.9,754.5 340,752.2 340.2,748 	"/>
	<polyline class="st4" points="341.6,735.6 342.9,727 343.5,723 342.5,729.5 	"/>
	<polyline class="st4" points="341.2,770.7 340.9,768.3 340.7,766.7 	"/>
	<polyline class="st4" points="340.7,766.7 340.7,767 341,769 341,769 	"/>
	<polyline class="st4" points="417.7,619.6 411.3,620.7 416.8,619.8 417.7,619.7 	"/>
	<polyline class="st4" points="457.9,614.4 467.6,612.9 477,611.1 481.7,610.3 486.6,609.5 490.9,608.4 	"/>
	<polyline class="st4" points="452.9,615.1 448.3,615.8 439.1,616.6 435.4,616.9 	"/>
	<polyline class="st4" points="424.1,618.4 429.3,617.5 434.2,617 438.8,616.7 448,615.8 452.9,615.1 457.9,614.4 	"/>
	<polyline class="st4" points="546.7,591.7 543.2,593.3 539.7,594.8 	"/>
	<polygon class="st4" points="518.9,601.2 522.8,599.8 523.3,599.6 	"/>
	<polyline class="st4" points="522.8,599.8 518.4,601.3 514.1,602.7 	"/>
	<line class="st4" x1="542.6" y1="593.7" x2="539" y2="595"/>
	<polyline class="st4" points="573.9,581.3 570.5,582.2 567.1,583.3 563.8,584.5 560.6,585.9 	"/>
	<polyline class="st4" points="554.3,588.7 560.3,586 563.5,584.7 	"/>
	<line class="st4" x1="560.3" y1="586" x2="553.9" y2="588.8"/>
	<polyline class="st4" points="551.9,589.6 553.5,589 559.9,586.3 	"/>
	<polyline class="st4" points="596.9,578.2 596.9,578.2 594.6,577.4 596.4,578 598.8,579 	"/>
	<polyline class="st4" points="591,576.9 589.3,577 587.5,577.3 	"/>
	<polyline class="st4" points="587.2,577.3 589,577 590.7,576.9 592.5,577 592.8,577 	"/>
	<polyline class="st4" points="607.3,584.4 612.7,588.8 618.1,593 623.5,596.8 629.9,601.7 632.9,604.2 636.9,607.5 	"/>
	<polyline class="st4" points="783,683.4 784.5,683.4 787.5,683.3 786.9,683.4 	"/>
	<polyline class="st4" points="786.9,683.4 783.9,683.3 783.9,683.3 	"/>
	<polyline class="st4" points="780.7,683.4 780.5,683.4 777.5,683.4 777.9,683.5 780.9,683.3 782.4,683.3 	"/>
	<polyline class="st4" points="817.9,689 819.3,689.9 822.4,691.8 820.8,690.9 819.4,690 	"/>
	<polyline class="st4" points="832.4,702.5 832.9,703.6 833.3,704.7 	"/>
	<polyline class="st4" points="831.2,700.4 831.8,701.4 832.4,702.5 	"/>
	<polyline class="st4" points="831.8,701.4 832.3,702.5 832.9,703.6 	"/>
	<polyline class="st4" points="825.8,694.4 827.2,695.8 829,697.5 827.5,696.2 	"/>
	<polyline class="st4" points="833.8,706.2 834,707 834.1,707.9 834.4,708.9 	"/>
	<polygon class="st4" points="814.8,687.5 813.6,687.1 812,686.5 813.2,686.9 	"/>
	<polygon class="st4" points="801.3,684.2 797.5,683.8 798.4,683.9 802.9,684.4 808,685.3 806.6,685.1 	"/>
	<polyline class="st4" points="808,685.3 809.9,685.9 812,686.5 811.3,686.3 	"/>
	<path class="st4" d="M367.6,630.2c15.6,6.5,43.1,27.5,55.9,37.6c17,13.4,35.5,29.1,51.5,43.7c31.9,29.1,65.4,64.4,88.7,101.4"/>
	<path class="st4" d="M366.8,629.8c1.5,0.5,2.9,1.3,4.3,2"/>
	<path class="st4" d="M365.5,629.4c0.7,0.3,1.4,0.5,2.1,0.8"/>
	<path class="st4" d="M371.1,631.9c-1.1-0.6-2.3-1.2-3.4-1.7"/>
	<path class="st4" d="M407.7,823.9c-2.5-20.8-18.1-55-27-73.1"/>
	<path class="st4" d="M404.8,834.6c1.4-1.8,2.1-3.7,2.4-5.9c0.3-2.1,0.4-4.3,0.3-6.4"/>
	<path class="st4" d="M405.6,839.2c3-4.1,2.6-11,2.1-15.3"/>
	<path class="st4" d="M381.9,787.4c-9-0.7-20.1-2.1-28.7-4.9"/>
	<path class="st4" d="M844.4,809.4c-4.7,11.7-10.8,24.2-17.9,34.7"/>
	<path class="st4" d="M839.2,807.3c-0.7,1.6-2.1,3-3.4,4c-1.9,1.5-3.9,2.7-6.1,3.9c-3.7,2-7.5,3.7-11.3,5.3
		c-7.7,3.2-15.6,5.8-23.6,8.1c-8,2.4-16,4.5-24.3,5.7c-7.9,1.2-17,1.8-24.9,1.3"/>
	<path class="st4" d="M716.5,827.2c7.4-0.4,14.3,2,19.8,7.1"/>
	<path class="st4" d="M551.2,849.2c6.9,2.1,12.3,6.9,16.2,12.7"/>
	<path class="st4" d="M535.2,850c-6.7,2.4-12.6,7.2-17.2,12.4"/>
	<path class="st4" d="M518,862.4c-5.1,5.7-8.9,11.9-12.1,18.7"/>
	<path class="st4" d="M578,867.7c8-0.2,20.7-2.8,28.4-4.4c9.4-1.9,18.8-3.7,28.3-5.1c9.5-1.4,19-2.6,28.6-3.8
		c4.8-0.6,9.5-1.2,14.3-1.9c2.6-0.4,5.3-0.8,7.9-1.4c1.2-0.2,2.4-0.5,3.5-0.9c0.9-0.3,1.8-0.5,2.6-1"/>
	<path class="st4" d="M739.8,839.7c8.9,0.4,18.9-0.4,27.7-1.6c9.9-1.4,17.6-3,27.2-5.7c9-2.5,17.8-5.2,26.4-8.7
		c4.3-1.7,8.6-3.5,12.7-5.7c2.4-1.2,4.7-2.5,6.8-4.2c1.4-1.1,3.1-2.6,3.8-4.4"/>
	<path class="st4" d="M563.9,866.5c-3.3-4.8-7.7-8.8-13.3-10.8"/>
	<path class="st4" d="M330.2,895.3c13,5.3,30,7.8,43.7,8.9c14.5,1.1,30.3,1,44.8,0c14.9-1,29.7-2.9,44.4-5.9
		c7.3-1.5,14.6-3.2,21.8-5.3c4.3-1.3,8.6-2.7,12.7-4.7c1.6-0.7,3.1-1.5,4.6-2.5c0.9-0.6,2.1-1.4,2.7-2.5"/>
	<path class="st4" d="M356.2,859.4c0.4-0.1,0.8-0.2,1.2-0.3"/>
	<path class="st4" d="M510.5,886.3c-6.9,13.5-15.3,25.6-27.9,34.8c-12.2,8.8-27.3,13.5-41.6,16.2c-14.5,2.7-30.2,3.5-44.8,2.8
		c-7.5-0.4-14.9-1.3-22.3-3.2c-7.3-1.8-14.3-4.3-21.3-7.3"/>
	<path class="st4" d="M839.2,807.2C839.2,807.2,839.2,807.3,839.2,807.2"/>
	<path class="st4" d="M357,859.5c0.4-0.1,0.7-0.2,1.1-0.3"/>
	<path class="st4" d="M703.7,830.9C703.8,830.9,703.8,830.9,703.7,830.9"/>
	<path class="st4" d="M510,868.5c0.1-0.1,0.2-0.3,0.3-0.4"/>
	<path class="st4" d="M708.4,828.7c2.7-0.8,5.3-1.3,8.1-1.5"/>
	<path class="st4" d="M422.4,861.4c0-0.1,0.1-0.2,0.1-0.3"/>
	<path class="st4" d="M510.1,886.8c0.2-0.3,0.3-0.6,0.5-0.9"/>
	<path class="st4" d="M502.5,891.6c-5.6,12.7-13.2,23.5-24.9,31.5c-11,7.6-25,11.8-37.8,14.2c-13.1,2.5-27.2,3.3-40.5,2.8
		c-14.8-0.5-25.8-2.6-39.5-8.5"/>
	<line class="st4" x1="426.6" y1="860.8" x2="427.2" y2="861.1"/>
	<path class="st4" d="M310.1,885.8c-1-4.2,2.3-7.7,5-10"/>
	<path class="st4" d="M352.5,929.6c-4.9-2.1-9.6-4.5-14.1-7.3c-4.5-2.8-8.9-5.7-12.8-9.3c-8.1-7.5-13.1-16.5-15.5-27.2"/>
	<path class="st4" d="M584.7,896.7c-8.4-4.7-13.6-14.9-16.9-22.9"/>
	<path class="st4" d="M692.8,848.2c0.4-0.6,0.5-1.1-0.1-1.6"/>
	<path class="st4" d="M836.6,704c5.7,1.7,12.4,4.3,16.7,9c4.3,4.7,6.2,11.6,7,17.5c1.6,12.1-0.4,26.4-2.9,38"/>
	<path class="st4" d="M826.6,844.1c-3.4,5-8.2,8.4-13.3,11.3c-5.1,2.9-10.5,5.2-16,7.3c-2.8,1-5.5,1.9-8.3,2.8
		c-2.8,0.9-5.6,1.7-8.4,2.5c-5,1.4-11.9,3-17.3,1.2"/>
	<path class="st4" d="M844.4,809.4c1.3-3.1-1.1-5.4-3.4-6.9"/>
	<path class="st4" d="M510.5,886.3c0-0.1,0.1-0.2,0.1-0.3"/>
	<path class="st4" d="M687.9,844.6c-0.2,0.3-0.4,0.5-0.6,0.8"/>
	<path class="st4" d="M716.5,827.2c-2,0.1-4,0.5-5.9,1"/>
	<path class="st4" d="M700.8,832.6c-3.3,2-6.2,4.4-8.9,7.2"/>
	<path class="st4" d="M551.2,849.2c-2.2-0.7-4.4-1-6.7-0.9"/>
	<path class="st4" d="M544.5,848.3c-3.2,0-6.3,0.6-9.3,1.7"/>
	<path class="st4" d="M763.1,869.2c-3.2-1-5.4-3-7.7-5.3c-2.2-2.2-4.2-4.6-6.2-7.1c-2-2.4-4-4.9-5.9-7.3c-2-2.4-3.9-4.9-5.9-7.3"/>
	<line class="st4" x1="763.1" y1="869.2" x2="717.6" y2="854.2"/>
	<path class="st4" d="M587.5,898c-1-0.4-1.9-0.8-2.8-1.3"/>
	<line class="st4" x1="559.4" y1="887.4" x2="514.4" y2="870.3"/>
	<path class="st4" d="M692.4,848.7c0.2-0.2,0.3-0.3,0.4-0.5"/>
	<path class="st4" d="M510.6,885.9c0.2-1.1-0.3-1.9-1.2-2.5"/>
	<path class="st4" d="M563.9,866.5c3.6,0.9,8.4,1.1,12.1,1.2"/>
	<path class="st4" d="M734.6,839.3c1.7,0.2,3.4,0.3,5.1,0.4"/>
	<path class="st4" d="M510.6,886C510.6,886,510.6,886,510.6,886"/>
	<path class="st4" d="M576,867.7c0.7,0,1.4,0,2.1,0"/>
	<path class="st4" d="M691.7,849.2c0.3-0.1,0.5-0.3,0.7-0.5"/>
	<path class="st4" d="M745.5,835.6c-1.7-0.1-3.3-0.3-4.9-0.5"/>
	<path class="st4" d="M687.3,845.3c-0.2,0.2-0.4,0.4-0.6,0.6"/>
	<path class="st4" d="M576.5,863.9c-3.1-0.5-6.1-1.2-9.1-2"/>
	<path class="st4" d="M686.8,845.9c-0.6,0.6-1.3,0.9-2.1,1.3c-1,0.5-2.1,0.8-3.2,1.2c-2.6,0.8-5.2,1.3-7.8,1.8
		c-4.5,0.8-9.1,1.5-13.7,2.1c-9.1,1.3-18.3,2.4-27.4,3.7c-10.7,1.6-16.6,2.7-27.3,4.8c-4.5,0.9-9.1,1.7-13.6,2.4
		c-4.6,0.7-9.1,1.3-13.8,0.9"/>
	<path class="st4" d="M577.8,864.1c-0.5,0-0.9-0.1-1.4-0.2"/>
	<line class="st4" x1="567.4" y1="861.9" x2="563.9" y2="866.5"/>
	<line class="st4" x1="734.6" y1="839.3" x2="736.3" y2="834.3"/>
	<path class="st4" d="M734.6,839.3c-2.6-2.3-5.3-3.9-8.6-4.9"/>
	<path class="st4" d="M740.6,835.1c-1.4-0.2-2.9-0.5-4.3-0.8"/>
	<path class="st4" d="M330.2,895.3c-4.1-1.7-12.5-5.5-13.7-11"/>
	<path class="st4" d="M324.6,897.5c-4.3-1.8-13.2-5.9-14.6-11.7"/>
	<line class="st4" x1="504.8" y1="883.1" x2="504.8" y2="883.1"/>
	<path class="st4" d="M824.3,717.4c-0.1,0-0.1,0.1-0.2,0.1"/>
	<path class="st4" d="M823.6,717.8c-0.1,0-0.2,0.1-0.4,0.1"/>
	<path class="st4" d="M823.2,717.9c-0.1,0.1-0.2,0.1-0.3,0.2"/>
	<path class="st4" d="M822.6,718.3C822.6,718.3,822.6,718.3,822.6,718.3"/>
	<path class="st4" d="M822.6,718.3c-0.1,0-0.1,0.1-0.2,0.1"/>
	<path class="st4" d="M821.8,718.7c-0.1,0.1-0.2,0.1-0.4,0.2"/>
	<path class="st4" d="M737.4,842.2c-0.9-1-1.7-2-2.7-2.9"/>
	<path class="st4" d="M567.8,873.8c-1.1-2.6-2.3-5-3.9-7.3"/>
	<path class="st4" d="M683.4,745.2c-25.6,2.5-51.2,4.5-76.7,8.4c-12.7,1.9-25.4,4.3-38,6.8c-12.6,2.6-25.1,5.8-37.6,8.7"/>
	<line class="st4" x1="403.7" y1="806.2" x2="403.7" y2="806.2"/>
	<polyline class="st4" points="503.3,605.5 506.7,604.7 513.7,602.8 518.1,601.5 	"/>
	<polyline class="st4" points="539,595 535.4,596.1 531.8,597.2 523.3,599.6 	"/>
	<line class="st4" x1="539" y1="595" x2="539.7" y2="594.8"/>
	<line class="st4" x1="341.7" y1="773.4" x2="341.5" y2="771.8"/>
	<polyline class="st4" points="790.5,683.4 792.3,683.6 794.4,683.6 796,683.7 	"/>
	<line class="st4" x1="782.4" y1="683.3" x2="783.9" y2="683.3"/>
	<line class="st4" x1="682.1" y1="739.5" x2="682.1" y2="739.5"/>
	<line class="st4" x1="832.1" y1="702" x2="832.4" y2="702.5"/>
	<polyline class="st4" points="771.5,683.6 773.5,683.6 775.5,683.5 	"/>
	<path class="st4" d="M635.7,604.7c-2-2.5-6.2-7.3-10.3-6.4"/>
	<path class="st4" d="M639.6,601.7c-2-2.6-4.7-5.4-7.8-6.8c-3.5-1.7-6.7-1.2-9.8,1"/>
	<line class="st4" x1="680.8" y1="797.3" x2="680.4" y2="795.9"/>
	<path class="st4" d="M824.2,717.5c-0.1,0.1-0.3,0.1-0.4,0.2"/>
	<path class="st4" d="M823.8,717.7c-0.1,0-0.1,0.1-0.2,0.1"/>
	<path class="st4" d="M822.4,718.4c-0.2,0.1-0.4,0.2-0.5,0.3"/>
	<path class="st4" d="M821.5,718.8c-0.2,0.1-0.4,0.2-0.5,0.2"/>
	<path class="st4" d="M820.9,719.1c-0.6,0.3-1.3,0.6-1.9,0.9"/>
	<path class="st4" d="M819,719.9c-0.1,0-0.2,0.1-0.3,0.1"/>
	<path class="st4" d="M680.4,791.5c0.3-0.1,0.7-0.1,1-0.2"/>
	<path class="st4" d="M403.9,832.4c0.8,0,1.6-0.1,2.3-0.1"/>
	<path class="st4" d="M514.8,824.3c-18.1,3.4-36.2,6.4-54.4,9c-18.2,2.6-36.4,4.7-54.8,5.9"/>
	<path class="st4" d="M405.6,839.2c-0.5-2.3-1.1-4.5-1.7-6.8"/>
	<polyline class="st4" points="389.5,625 392.4,624.3 399.3,622.8 	"/>
	<polyline class="st4" points="375.8,628.6 377.1,628.2 378.7,627.6 382.3,626.6 	"/>
	<polyline class="st4" points="372.2,629.9 372.8,629.7 374.8,628.9 375.8,628.6 	"/>
	<polyline class="st4" points="833.3,704.7 833.5,705.4 833.8,706.2 	"/>
	<line class="st4" x1="833.3" y1="704.7" x2="833.8" y2="706.6"/>
	<line class="st4" x1="829" y1="697.5" x2="831.2" y2="700.4"/>
	<polyline class="st4" points="829,697.5 829.7,698.4 831.2,700.4 	"/>
	<line class="st4" x1="370.3" y1="630.9" x2="370.3" y2="630.8"/>
	<line class="st4" x1="342.4" y1="776" x2="342.1" y2="774.5"/>
	<polyline class="st4" points="485.5,609.7 481.9,610.3 478.7,610.8 	"/>
	<polyline class="st4" points="822.4,691.8 823.8,692.9 825.8,694.4 	"/>
	<polyline class="st4" points="814.8,687.5 816.3,688.2 817.9,689 	"/>
	<line class="st4" x1="345.8" y1="711.7" x2="346.3" y2="709.5"/>
	<line class="st4" x1="344.2" y1="719.1" x2="344.7" y2="716.1"/>
	<line class="st4" x1="343.5" y1="723" x2="344.1" y2="719.9"/>
	<polyline class="st4" points="340.7,766.7 340.5,765.3 340.4,763.9 340.2,762.6 340.1,761.2 340,759.9 340,758.5 339.9,757.2 
		339.9,754.5 	"/>
	<polyline class="st4" points="341.6,735.6 340.5,743.8 340.2,748 	"/>
	<line class="st4" x1="341.7" y1="773.4" x2="341.2" y2="770.7"/>
	<line class="st4" x1="342.4" y1="776" x2="341.7" y2="773.4"/>
	<line class="st4" x1="411.3" y1="620.7" x2="405.9" y2="621.6"/>
	<polyline class="st4" points="399.3,622.8 402.1,622.3 405.9,621.6 	"/>
	<line class="st4" x1="424.1" y1="618.4" x2="417.7" y2="619.6"/>
	<polyline class="st4" points="382.3,626.6 385.3,625.9 389.5,625 	"/>
	<polyline class="st4" points="503.3,605.5 499.2,606.4 497.1,606.9 495,607.4 492.9,607.9 490.9,608.4 	"/>
	<line class="st4" x1="542.6" y1="593.7" x2="539.7" y2="594.8"/>
	<polyline class="st4" points="546.7,591.7 546.7,591.7 548.5,591 550.6,590.1 	"/>
	<line class="st4" x1="550.6" y1="590.1" x2="551.9" y2="589.6"/>
	<line class="st4" x1="592.8" y1="577" x2="594.6" y2="577.4"/>
	<polyline class="st4" points="573.9,581.3 578.7,579.9 583.8,578.3 587.2,577.3 	"/>
	<line class="st4" x1="600.5" y1="579.8" x2="598.8" y2="579"/>
	<polyline class="st4" points="600.5,579.8 602,580.6 603.5,581.6 	"/>
	<polyline class="st4" points="603.5,581.6 605.2,582.8 607.3,584.4 	"/>
	<line class="st4" x1="796" y1="683.7" x2="797.5" y2="683.8"/>
	<line class="st4" x1="787.5" y1="683.3" x2="790.5" y2="683.4"/>
	<line class="st4" x1="775.5" y1="683.5" x2="777.5" y2="683.4"/>
	<line class="st4" x1="834.5" y1="709.7" x2="834.5" y2="710.8"/>
	<line class="st4" x1="834.4" y1="708.9" x2="834.5" y2="709.7"/>
	<path class="st4" d="M340.1,703.1c-4.2,1.2-6.9,5.8-8.6,9.2c-1.9,3.9-3.2,8-4.3,12.2"/>
	<path class="st4" d="M357.7,630.2c0.6-1.6,2.1-1.9,3.6-1.8c1.5,0.1,2.8,0.5,4.2,1"/>
	<path class="st4" d="M365.5,629.4c0.4,0.1,0.9,0.3,1.3,0.4"/>
	<path class="st4" d="M366.3,629.7c0.2,0,0.4,0.1,0.5,0.1"/>
	<path class="st4" d="M407.6,822.2c0,0.5,0.1,1.1,0.1,1.6"/>
	<path class="st4" d="M332.3,726.2c-5.3,19.5-8.3,47.1-6.1,67.3"/>
	<path class="st4" d="M340.5,703.5c-0.1-0.1-0.2-0.2-0.2-0.3"/>
	<path class="st4" d="M327.2,724.6c-5.7,20.9-8.2,55.1-4,76.6"/>
	<path class="st4" d="M327.2,724.6c1.1-4,2-8,2.8-12.1c0.8-4.1,1.5-8.1,2.3-12.2c0.9-4.6,1.8-7.5,3.4-11.9c1.4-3.9,3-7.7,4.4-11.6
		c5.9-15.5,11.5-31.1,17.4-46.5"/>
	<path class="st4" d="M822.1,771.9C822.1,771.9,822.1,771.9,822.1,771.9"/>
	<line class="st4" x1="404.8" y1="834.6" x2="405.6" y2="839.2"/>
	<path class="st4" d="M822.1,771.9c-17.9,3.5-52.8,9.8-70.8,13.1c-23.6,4.3-47.2,8.5-70.9,12.4"/>
	<path class="st4" d="M818.7,720c-0.3,0.1-0.7,0.3-1,0.4"/>
	<line class="st4" x1="504.8" y1="883.3" x2="504.8" y2="883.3"/>
	<line class="st4" x1="504.9" y1="882.9" x2="504.9" y2="882.9"/>
</g>
</svg>
